<svg data-v-423bf9ae="" xmlns="http://www.w3.org/2000/svg" viewBox="0 0 258.8135698697103 60" class="font"><!----><!----><!----><g data-v-423bf9ae="" id="2690ecd4-d359-443b-b700-12e860e82afa" fill="white" transform="matrix(5.649717575005543,0,0,5.649717575005543,-1.8079083940303349,-19.717513675393512)"><path d="M3.37 14Q3.14 14 3.07 13.78L3.07 13.78L0.34 4.49Q0.32 4.45 0.32 4.40L0.32 4.40Q0.32 4.20 0.56 4.20L0.56 4.20L2.84 4.20Q3.08 4.20 3.14 4.44L3.14 4.44L4.49 10.18Q4.52 10.25 4.57 10.25Q4.62 10.25 4.63 10.18L4.63 10.18L5.95 4.44Q5.99 4.20 6.24 4.20L6.24 4.20L8.47 4.20Q8.61 4.20 8.67 4.28Q8.74 4.35 8.69 4.49L8.69 4.49L5.94 13.78Q5.87 14 5.63 14L5.63 14L3.37 14ZM10.92 6.43Q10.25 6.43 9.83 6.02Q9.41 5.61 9.41 4.96L9.41 4.96Q9.41 4.30 9.83 3.89Q10.25 3.49 10.92 3.49L10.92 3.49Q11.61 3.49 12.02 3.89Q12.43 4.30 12.43 4.96L12.43 4.96Q12.43 5.61 12.02 6.02Q11.61 6.43 10.92 6.43L10.92 6.43ZM9.87 14Q9.60 14 9.60 13.73L9.60 13.73L9.60 6.99Q9.60 6.72 9.87 6.72L9.87 6.72L11.97 6.72Q12.24 6.72 12.24 6.99L12.24 6.99L12.24 13.73Q12.24 14 11.97 14L11.97 14L9.87 14ZM13.33 14Q13.06 14 13.06 13.73L13.06 13.73L13.06 11.82Q13.06 11.63 13.20 11.49L13.20 11.49L15.71 9.24Q15.75 9.20 15.75 9.17L15.75 9.17Q15.75 9.10 15.65 9.10L15.65 9.10L13.43 9.10Q13.16 9.10 13.16 8.83L13.16 8.83L13.16 6.99Q13.16 6.72 13.43 6.72L13.43 6.72L18.72 6.72Q18.98 6.72 18.98 6.99L18.98 6.99L18.98 8.90Q18.98 9.09 18.83 9.23L18.83 9.23L16.21 11.48Q16.17 11.52 16.17 11.55L16.17 11.55Q16.17 11.62 16.27 11.62L16.27 11.62L18.83 11.62Q19.10 11.62 19.10 11.89L19.10 11.89L19.10 13.73Q19.10 14 18.83 14L18.83 14L13.33 14ZM23.30 14.11Q21.97 14.11 21.05 13.40Q20.13 12.68 19.84 11.47L19.84 11.47Q19.70 10.96 19.70 10.35L19.70 10.35Q19.70 9.66 19.87 9.10L19.87 9.10Q20.20 7.94 21.11 7.27Q22.01 6.61 23.31 6.61L23.31 6.61Q24.61 6.61 25.50 7.27Q26.39 7.94 26.73 9.07L26.73 9.07Q26.89 9.66 26.89 10.32L26.89 10.32Q26.89 10.85 26.78 11.38L26.78 11.38Q26.49 12.64 25.57 13.38Q24.65 14.11 23.30 14.11L23.30 14.11ZM23.30 11.86Q23.66 11.86 23.88 11.61Q24.11 11.37 24.19 10.96L24.19 10.96Q24.25 10.70 24.25 10.33L24.25 10.33Q24.25 10.01 24.18 9.69L24.18 9.69Q23.97 8.86 23.30 8.86L23.30 8.86Q22.60 8.86 22.41 9.69L22.41 9.69Q22.34 9.93 22.34 10.33L22.34 10.33Q22.34 10.70 22.40 10.96L22.40 10.96Q22.61 11.86 23.30 11.86L23.30 11.86ZM32.03 6.61Q32.73 6.61 33.29 6.92Q33.85 7.22 34.18 7.82Q34.51 8.41 34.51 9.23L34.51 9.23L34.51 13.73Q34.51 14 34.24 14L34.24 14L32.14 14Q31.88 14 31.88 13.73L31.88 13.73L31.88 9.80Q31.88 9.38 31.66 9.12Q31.44 8.86 31.09 8.86L31.09 8.86Q30.73 8.86 30.51 9.12Q30.30 9.38 30.30 9.80L30.30 9.80L30.30 13.73Q30.30 14 30.03 14L30.03 14L27.93 14Q27.66 14 27.66 13.73L27.66 13.73L27.66 6.99Q27.66 6.72 27.93 6.72L27.93 6.72L30.03 6.72Q30.30 6.72 30.30 6.99L30.30 6.99L30.30 7.35Q30.30 7.42 30.33 7.44Q30.37 7.46 30.41 7.41L30.41 7.41Q30.94 6.61 32.03 6.61L32.03 6.61ZM36.82 6.43Q36.15 6.43 35.73 6.02Q35.31 5.61 35.31 4.96L35.31 4.96Q35.31 4.30 35.73 3.89Q36.15 3.49 36.82 3.49L36.82 3.49Q37.51 3.49 37.92 3.89Q38.33 4.30 38.33 4.96L38.33 4.96Q38.33 5.61 37.92 6.02Q37.51 6.43 36.82 6.43L36.82 6.43ZM35.77 14Q35.50 14 35.50 13.73L35.50 13.73L35.50 6.99Q35.50 6.72 35.77 6.72L35.77 6.72L37.87 6.72Q38.14 6.72 38.14 6.99L38.14 6.99L38.14 13.73Q38.14 14 37.87 14L37.87 14L35.77 14ZM42.66 14.11Q41.47 14.11 40.59 13.53Q39.70 12.95 39.30 11.91L39.30 11.91Q39.02 11.20 39.02 10.32L39.02 10.32Q39.02 9.45 39.30 8.74L39.30 8.74Q39.69 7.74 40.59 7.17Q41.48 6.61 42.66 6.61L42.66 6.61Q43.85 6.61 44.77 7.20Q45.68 7.80 46.00 8.69L46.00 8.69Q46.12 8.99 46.13 9.17L46.13 9.17L46.13 9.20Q46.13 9.42 45.89 9.46L45.89 9.46L43.83 9.79Q43.82 9.79 43.80 9.79Q43.78 9.80 43.75 9.79L43.75 9.79Q43.57 9.79 43.54 9.62L43.54 9.62L43.48 9.42Q43.41 9.18 43.18 9.02Q42.95 8.86 42.64 8.86L42.64 8.86Q42.08 8.86 41.85 9.37L41.85 9.37Q41.68 9.72 41.68 10.33L41.68 10.33Q41.68 10.91 41.83 11.30L41.83 11.30Q42.07 11.86 42.64 11.86L42.64 11.86Q43.23 11.86 43.46 11.28L43.46 11.28Q43.47 11.24 43.48 11.22Q43.48 11.20 43.48 11.20L43.48 11.20L43.48 11.20Q43.50 11.13 43.59 11.05Q43.68 10.96 43.79 10.98L43.79 10.98L45.86 11.31Q46.13 11.35 46.09 11.61L46.09 11.61Q46.06 11.80 46.00 11.98L46.00 11.98Q45.64 13.01 44.74 13.56Q43.83 14.11 42.66 14.11L42.66 14.11Z"></path></g><!----><!----></svg>